<svg xmlns="http://www.w3.org/2000/svg" fill="none" viewBox="0 0 100 100"><g clip-path="url(#a)"><path fill="#fff" d="M50.002 0C77.616 0 100 22.388 100 50.001 100 77.615 77.615 100 50.002 100 22.387 100 0 77.616 0 50.001 0 22.387 22.387 0 50.002 0m-6.626 15.276c-6.185.02-11.747 9.94-16.546 29.457-3.413-.04-6.508-.1-9.42-.14h-.983q-.271.01-.542.04a3.46 3.46 0 0 0-2.791 2.891 3.467 3.467 0 0 0 2.913 3.935l.04.04h9.237a251 251 0 0 0-2.231 11.487l-.28 1.647v.079c0 .783.402 1.508 1.065 1.93a2.304 2.304 0 0 0 3.172-.704l.06.058 4.517-14.476h21.766c1.667 6.305 3.394 12.791 5.682 18.895 1.225 3.274 4.077 10.9 8.854 10.943h.061c7.39 0 10.282-11.946 12.19-19.857.422-1.707.763-3.174 1.105-4.258l.14-.442c.02-.1.04-.202.04-.322a1.135 1.135 0 0 0-.722-1.044c-.582-.241-1.244.06-1.485.642l-.162.444c-.622 1.747-1.203 3.394-1.725 4.84l-.043.097c-3.212 9.057-4.679 13.194-7.53 13.194h-.198c-3.675 0-7.111-14.9-8.415-20.502-.222-.964-.44-1.868-.622-2.651H84.22c.441 0 .864-.1 1.245-.301l.097-.061.182-.119.18-.121a2.92 2.92 0 0 0 .965-1.507c.3-1.424-.642-2.83-2.067-3.11H84.8l-.04-.022h-.04c-.139-.02-.261-.04-.401-.04l-.362-.04c-8.373-.602-17.008-.843-25.08-1.004l-.021-.06c-3.936-14.759-8.854-29.838-15.48-29.838m-.262 6.666c.361 0 .662.202.943.563.682 1.064 1.888 3.493 3.674 8.894 1.225 3.715 2.551 8.294 3.957 13.635-5.32-.08-10.722-.14-15.943-.2l-2.65-.022c2.991-11.686 6.627-20.542 9.298-22.63q.33-.21.72-.24"/></g><defs><clipPath id="a"><path fill="#fff" d="M0 0h100v100H0z"/></clipPath></defs></svg>
